<svg version="1" xmlns="http://www.w3.org/2000/svg" width="3200" height="3200" viewBox="0 0 2400.000000 2400.000000"><path d="M1319.9.4c-.2.2-2.2.6-4.4 1-12 1.7-20.5 4.1-31.5 8.8-50.2 21.2-86.6 71.4-94.7 130.3-1.4 10.6-.8 42.1 1.1 51 1 4.4 1.9 9.1 2.2 10.5 1.1 5.7 5.9 19.1 10 27.7 4.9 10.2 9.4 17.6 16.7 27.1 3.2 4.1 4.4 6.3 3.5 6.6-.7.2-5 1.7-9.6 3.4-7.9 2.9-8.5 3-12.5 1.6-10.6-3.5-28.9-3.8-47.2-.8-31.2 5.2-76.7 20.4-116.4 39-5.1 2.4-9.5 4.4-9.8 4.4-.6 0-38 18.7-42.8 21.5-2.2 1.2-6.5 3.6-9.5 5.2s-11.3 6.3-18.3 10.4c-7.1 4.1-14.7 8.5-17 9.8-2.3 1.3-6.1 3.7-8.5 5.2-2.4 1.6-4.5 2.9-4.7 2.9-.7 0-31.6 20.1-47 30.5-8.2 5.6-16.6 11-18.5 12-3.8 2-15.5 10.6-21 15.6-1.9 1.7-11.1 9.3-20.5 16.7-9.3 7.5-17.2 13.8-17.5 14.2-.3.3-3.4 3-7 6-23 19.4-53.3 49.3-67 66-2.5 3-4.7 5.7-5.1 6-.3.3-3.3 4.1-6.6 8.5-17 22.5-26.4 41.7-27.8 57-.7 7.2-.5 6.8-13.5 30.5-5.4 9.9-33.3 65.9-38.9 78-2.4 5.2-7.3 16-10.8 24-3.5 8-7.3 16.5-8.5 19-1.1 2.5-3.9 8.8-6 14-4.8 11.4-4.5 10.7-15.1 34-10.5 22.8-14.5 32-22.4 51-.8 1.9-1.8 4.4-2.3 5.5-1.8 3.9-11.9 31.2-15 40.5-4.9 14.6-9.9 32.7-11.5 41.5-.8 4.4-1.7 9.6-2.1 11.5-.4 1.9-.7 8-.9 13.5-.1 6.1-1 13.4-2.3 18.5-2.7 10.9-2.4 29.7.6 40.5 7.6 27.7 26.1 48.2 51.1 56.4 9.4 3.1 21.4 4.2 30.6 2.8 7.2-1.1 9.5-1.7 15.3-3.9 17.1-6.3 30.7-18.5 40.7-36.4 2.6-4.6 5.2-8.4 5.8-8.4 2.2 0 5.6-5.3 6.7-10.5 3.8-18.5-4.5-51.5-22-86.7l-7.8-15.7 4.3-13.3c4.9-15.3 6.6-21.2 10-35.7 1.7-7.5 3.3-11.6 5.4-14.5 4.3-5.7 33.2-48.9 41.8-62.2 3.9-6.1 10.6-15.1 15-20 4.3-4.9 13.2-15.2 19.7-22.9 14.9-17.7 13.8-16.3 22.6-27.5 4.1-5.2 7.7-9.7 8.1-10 2.3-2 49.2-64.8 57.5-77 1.7-2.5 7-10.1 11.7-17 10.7-15.3 9.9-14.1 15-22l4.2-6.4 25-12.6c22.9-11.5 29.6-15 41-21.5 2.2-1.3 5.6-3.2 7.5-4.2 9.9-5.6 28.9-16.9 32-18.9 4-2.7 4.7-2.9 4.7-1.2s1.4 17.7 1.8 20.8c.1 1.4.6 5.6.9 9.5.4 3.8.9 8.1 1.1 9.5.2 1.4.7 4.7 1 7.5.5 4.9 2.2 18.6 3 23.5.2 1.4.7 4.7 1 7.5.8 5.7 8.2 50.7 9 54.5.3 1.4 1.2 6.5 2.1 11.5.8 4.9 1.9 10.8 2.4 13 2.3 10.1 4.9 25.7 5.5 33 .4 4.4.9 10 1.1 12.5.2 2.5.6 6.1.8 8 .3 1.9.8 5.5 1.2 8 1.1 8.3 3.3 22.5 4.4 28 .6 3 1.3 6.8 1.5 8.5.8 4.9 4.6 21.4 6.6 29.2 6.8 25.9 9.7 35.3 17.6 56.5l5.5 14.8-4.2 13.2c-2.3 7.3-4.5 14.4-5 15.8-1.8 5.2-12.4 43.5-13.5 49-.2.8-1.2 5.1-2.4 9.5-1.1 4.4-2.2 9.1-2.5 10.5-.2 1.4-.9 4.5-1.5 7-.7 2.5-1.4 5.6-1.7 7-.2 1.4-1.5 7.9-2.9 14.5-1.3 6.6-2.6 13.3-2.9 15-.2 1.6-.9 5.3-1.5 8.2-.6 2.9-1.3 7.4-1.7 10-.3 2.6-.8 5-.9 5.3-.2.3-.6 2.6-1 5-.3 2.5-.8 5.6-1 7-.5 3-4.4 31.1-5 36-1.7 13.8-3.1 28.5-4.1 40.6-.3 4.9-.8 10.5-.9 12.4-2.6 28.6-2.6 96 0 125.5 2 23.1 3.4 34 7.1 55.7 2.2 13.5 6.8 32.3 11.3 46.9 2.7 8.8 3 11.3 3.5 29 .3 10.7.8 22.1 1.1 25.4.2 3.3.7 10.3 1 15.5.4 5.2.8 11.1 1 13 .1 1.9.6 7.1 1 11.5.3 4.4.8 8.7 1 9.5.2.8.6 4.4 1 8 .4 3.6.8 7.6 1 9 .1 1.4.6 5 .9 8 .4 3 .9 6.6 1.1 8 .3 1.4.7 3.8.9 5.5.4 2.8 3.1 18.4 4.1 24.7 6.2 35.7 17.4 75.9 28.7 103.3 2.8 6.6 5.7 13.7 6.6 15.8 1.4 3.6 1.4 4.1-1.6 13.5-4.6 14.2-10.2 36-11.8 46.2-.3 1.9-.7 3.7-.9 4-.2.3-.6 2.4-.9 4.6-.4 2.2-.8 4.9-1 5.9-.7 4.1-2.2 13.6-3.1 20.5-.3 2.5-.8 6.1-1 8-4.5 31.7-6.2 85.3-4.2 128 .5 9.1 1 17.6 1.2 19 .2 1.4.7 5.6 1 9.5.3 3.8 1.2 12.4 2.1 19 .8 6.6 1.7 13.4 1.9 15.2.2 1.7.8 5.7 1.4 9 .6 3.2 1.3 7.1 1.5 8.8 2.6 15.2 9.2 42.3 14.3 58 4.5 13.9 7.8 22.2 14.3 36 2.8 6.1 5.6 13.5 6.1 16.5s1.4 7.5 1.9 10 1.2 6.1 1.4 8c.3 1.9.8 4.6 1.1 6 .3 1.4.8 3.6 1.1 5 .2 1.4 1.1 5.7 1.9 9.6 1.5 6.9 1.5 7.6-1.4 24.5-1.6 9.6-3.2 19.2-3.6 21.4-.3 2.3-.7 5-.9 6-.2 1.1-.9 5.6-1.6 10-.6 4.4-1.3 9.1-1.5 10.5-.2 1.4-.9 6.3-1.5 11s-1.2 9.8-1.5 11.5c-1.4 10.9-2.5 19.9-3 26-.3 3.8-.8 8.6-1 10.5-.2 1.9-.7 6.6-1 10.5-.3 3.8-.8 9-1 11.5-1.7 18.4-2.3 57.5-1.1 73 2.4 31.2 8 40.9 25.4 44.5 24.6 5.2 66.5-6.2 97.2-26.4 9.9-6.5 22.8-18.8 25.8-24.7 2.6-5.1 4.4-14.7 5.9-30.4 1.2-13.5.6-55.1-1.1-74-.2-1.9-.7-7.6-1-12.5-.4-5-.9-10.4-1.1-12-.2-1.7-.7-6.1-1-9.8-.4-3.7-.8-7.6-1-8.5-.1-.9-.6-4.4-.9-7.7-.4-3.3-.9-7.4-1.1-9-.2-1.7-.7-5.3-1-8-.4-2.8-.8-5.9-1-7-.1-1.1-.6-4.3-1-7-.3-2.8-1-7.7-1.5-11s-1.2-7.8-1.5-10c-.3-2.2-1-6.3-1.5-9-.6-2.8-1.2-6.6-1.4-8.5-1.3-9.4-8.2-46.5-12.7-67.2l-2.9-13.7 2.4-7.8c2.7-8.6 6.4-22.2 7.2-26.7.3-1.6.7-3.2.9-3.6.2-.4.7-2.2 1-4.1.3-1.9 1.2-6.6 2-10.4.8-3.9 2.1-11.1 2.9-16 1.4-8.7 1.8-11.1 3.2-22 .3-2.8.8-5.8 1-6.8.2-1 .6-5.3.9-9.5.4-4.2.9-9.1 1.1-10.7.3-3 1.3-17.8 2-31.5.9-18.5.3-63.9-1.1-80.5-.2-3.3-.7-9.4-1-13.5-.6-7.5-1.1-12.2-2-20.3-.3-2.3-.7-5.8-.9-7.7-.5-4.3-1.6-12.6-2.2-16-.2-1.4-.7-4.1-1-6-3-19.7-10.1-49.2-16.5-68.7l-3.9-12.2 4.5-10.5c8.4-19.7 18.9-53.7 24.1-78.1 2.5-11.3 5-23.8 5.9-29 .2-1.7.7-4.1 1-5.5.2-1.3.7-4.2 1-6.5.3-2.2.8-4.7 1-5.5.4-1.4.9-5 2-14.3.5-3.8 1-7.5 2-14.7.5-3.4 1.1-9.4 3-28 .3-2.5.7-8.1 1-12.5.3-4.4.8-10.3 1-13 .7-8.4 1.6-32.1 1.9-49.8.2-9.2.5-17 .7-17.2.3-.2.6 4.2.7 9.8.2 5.6.5 12.9.7 16.2.8 13 1.6 23.3 1.9 27.1.2 2.1.7 7.3 1.1 11.4.3 4.1.8 8.6 1 10 .2 1.4.7 5.9 1 10 .4 4.1.8 7.7 1 8 .2.3.6 3.9 1 8s.8 7.7 1 8c.1.3.6 2.7.9 5.5.4 2.7 1.1 7.5 1.6 10.5 1.5 8.5 1.9 11.2 2.5 15.5.4 2.2.8 4.7 1 5.5.2.8.7 3.1 1 5 .8 5 4.1 20.5 7.6 35 9.8 41.2 23.1 79.4 37.4 107.6l6.1 12.1-2.9 3.4c-19.7 23.2-34.8 66.4-42.6 122.4-1.1 7.7-2.3 17.6-2.6 22-.4 4.4-.9 9.6-1.2 11.5-.3 1.9-.7 21.5-.8 43.5-.3 33.4-.6 40.8-2 45-5.4 16.9-13.5 47-16 60-.5 2.2-.9 4.4-1 5-.2.5-.5 2.6-.9 4.5-.3 1.9-1.2 7.1-2 11.5-.9 4.4-1.8 10.2-2.1 13-.3 2.7-1 7.7-1.5 11-2.5 16-3.5 63.1-1.7 78.5 3.7 31.9 14.4 54.3 29.5 61.7 5.1 2.5 6.7 2.8 14.7 2.6 23.6-.4 54.7-11.9 89-32.6 11.5-7 25.4-16.5 30.5-20.9.9-.7 4.8-3.9 8.7-7.1 4-3.2 11.3-10.1 16.2-15.3 16.9-17.6 23.7-31.4 19.5-39.5-.7-1.5-1.1-2.9-.8-3.2 3-2.9 2.5-58.8-.6-84.7-.6-4.7-1.3-10.1-1.5-12-1.8-14.7-5.9-36-11.1-58-1.4-5.8-2.7-11.2-2.9-12-.2-.8-1-4-1.8-7s-1.3-6.8-1.1-8.5c.2-1.6.4-9.4.5-17.1l.1-14.1 3.2-1.7c3.2-1.6 4-2.1 11.6-7 14-9 35.1-27.9 45.9-41.1 10.7-12.9 22-33 26.6-47.1 4.6-14 5.6-23.8 3.9-37.9-.9-7.7-.7-9.6 1.1-15.9.9-2.9 1.8-6.4 2-7.7.4-2 2.6-12.2 3-13.9.1-.3.5-2.5 1-5s.9-4.7 1-5c.1-.3.5-2.5.9-5 .5-2.5 1-5.4 1.2-6.5.2-1 .6-3.5.9-5.5.3-2 .7-4.7 1-6 .3-1.3.7-4.2 1-6.5.3-2.2.8-4.7 1-5.5.2-.8.6-4 1-7.1.3-3.1.7-6.5.9-7.5.2-1.1.7-4.8 1.1-8.4.4-3.6.8-7.2 1-8.1.4-2 1.5-11.9 2.1-18.9.2-3 .6-6.9.8-8.5.3-1.7.8-7.1 1.1-12 .4-5 .8-10.6 1-12.5.2-1.9.6-8.2 1-14 .3-5.8.7-13.2 1-16.5.5-6.5 1.2-25.1 2.1-55 .2-10.5.7-20.6.9-22.5.9-8.7 1.9-23.3 3.2-46 1.5-26.3.8-102.8-1.2-125-.2-2.5-.7-8.3-1-13-.3-4.7-.8-10.1-1-12-2.1-20.7-2.1-21-1-30.5 1.6-12.6.8-69.8-1-80.5-.2-1.4-.7-7.2-1.1-13-.3-5.8-.7-10.7-.9-11-.2-.3-.6-3.9-.9-8-.4-4.1-1.1-10.7-1.6-14.5-.5-3.9-1.2-9.3-1.5-12-.4-2.8-.9-6.6-1.1-8.5-.5-3.8-.8-5.9-1.9-13.5-1.2-8.5-1.9-13.4-3.5-22.5-.5-3-1.2-7.1-1.4-9-.9-6.9-4.7-27.9-9.2-51-5.5-28.5-5.2-26.8-5.8-28.8-.3-.9-.7-2.8-1-4.2-.7-4.4-5.7-26.1-9.3-41-4.4-18.5-4.2-17.1-2.8-20 6.8-13.8 24-73.4 27.1-94 .3-1.9.9-5.1 1.4-7 .4-1.9 1.1-5.8 1.5-8.5.4-2.8.9-5.9 1.1-7 .2-1.1.6-4 .9-6.5.3-2.5 1.3-7.4 2.1-11 .9-3.6 1.7-7.2 1.9-8l2-8c.8-3.6 1.8-7.4 2-8.5 2.1-9.3 2.9-13 4.5-20 1-4.4 2.1-9.1 2.3-10.5.3-1.4 1.4-6.8 2.5-12 2.4-10.9 2.9-13.6 4.2-20.5.5-2.8 1.8-9.7 2.9-15.5 1.1-5.8 2.2-11.9 2.5-13.5.4-2.4 2.5-15 5.1-30.5.2-1.4.7-4.3 1-6.5 1-6.7 2.5-14.8 2.8-15.1.2-.3 17.7 14 30.7 25 1.4 1.1 4.9 3.9 7.7 6 2.9 2.2 6 5.6 6.9 7.5 4.3 9.4 20.4 41.6 24.7 49.6 2.7 4.9 6.7 12.4 9 16.5 14.2 26.3 47.4 78.2 56.4 88.2 2 2.2 1.8 2.6-5.2 8.7-3.3 3-11.7 10.7-18.7 17.4l-12.6 12-17.9.3c-9.8.1-19.5.5-21.5.8-2.1.3-5.4.8-7.4 1.1-9.6 1.2-11.7 1.6-31.5 6-10.6 2.3-33.1 11.7-40.4 16.9-4.6 3.2-9.5 8.8-10.1 11.6-.3 1.4-1.2 3.6-2 5-5 8.3-6.7 13.5-7.2 21.9-.8 15.5 5 32.3 16.8 47.9 6.9 9.2 17.4 19.3 25.9 25.1 6.9 4.7 21.7 12.1 24.1 12.1.9 0 2.1.5 2.8 1.2.7.7 1.2.9 1.2.5s2.4.3 5.3 1.4c7 2.8 19.2 2.2 30.1-1.6 20.6-7.1 46.3-21.8 67-38.4 4.9-3.9 9.1-7.1 9.5-7.2.3 0 1.3-.2 2.1-.4.8-.1 3.5-.6 6-1 10.8-1.6 37.3-8.1 53.5-13.1 38.8-12 70.8-29.6 79.7-43.9 4-6.5 7.9-19 9.5-30.6 1.5-10.3.7-46.4-1.1-56.9-.3-1.4-.7-4.5-1-7-1.3-10-6.1-34.1-9.3-46.5-1.4-5.5-2.6-10.5-2.7-11-2.9-12.7-14.3-48-22.7-70.5-8-21.6-22-55.5-25.5-62-.7-1.4-2.3-4.8-3.5-7.5-4.5-10.5-27.1-55.1-32.9-65-1-1.7-2.9-5-4.2-7.5-28.8-51.9-66.9-104.2-99.8-137-20.8-20.8-34.8-31.1-55-40.4-8.5-3.9-21.7-5.1-29.7-2.7-2.5.7-4.4.5-8.1-.8-16.1-5.9-42.9-13-65.7-17.5-.5-.1-5-.8-10-1.6-4.9-.7-10.3-2.1-12-3.1-14-8.3-45.3-22-61.2-26.8l-7.1-2.2 2.5-2.7c3.3-3.5 15.5-19.7 18.2-24.2 3.3-5.4 12.8-25 14.6-30 16.1-44.8 14.5-90.3-4.5-129.5-8.7-18-19.4-31.7-35-45-9.8-8.4-30.8-19.5-41.4-22-12.4-2.9-18.2-3.7-30.7-4-8.1-.2-14.8-.2-15-.1zM1246 1330.7c0 7.5-.2 13.4-.4 13.2-.2-.2-.6-5.3-.9-11.4-.6-9.8-.2-15.5.9-15.5.2 0 .4 6.1.4 13.7zm-.3 17.5c-.3.7-.5.2-.5-1.2s.2-1.9.5-1.3c.2.7.2 1.9 0 2.5zm0 4c-.3.8-.6.5-.6-.6-.1-1.1.2-1.7.5-1.3.3.3.4 1.2.1 1.9z"/></svg>